<svg width="512" height="512" viewBox="0 0 512 512" fill="none" xmlns="http://www.w3.org/2000/svg">
<path d="M354.03 0H57.9C25.97 0 0 29.63 0 66.0599V362.132C0 376.154 13.899 384.058 23.71 376.062L106.18 308.93C113.1 303.305 121.24 300.327 129.74 300.327H311.13C343.06 300.327 369.03 270.697 369.03 234.267V17.114C369.03 7.66706 362.31 0 354.03 0V0ZM281.17 207.319H107.86C99.58 207.319 92.86 199.663 92.86 190.205C92.86 180.758 99.58 173.091 107.86 173.091H281.17C289.45 173.091 296.17 180.758 296.17 190.205C296.17 199.663 289.45 207.319 281.17 207.319ZM281.17 127.453H107.86C99.58 127.453 92.86 119.798 92.86 110.339C92.86 100.893 99.58 93.2255 107.86 93.2255H281.17C289.45 93.2255 296.17 100.893 296.17 110.339C296.17 119.798 289.45 127.453 281.17 127.453Z" fill="black"/>
<path d="M512 198.807V494.867C512 508.795 498.171 516.851 488.29 508.798L405.82 441.677C398.9 436.052 390.76 433.075 382.26 433.075H200.87C168.94 433.075 142.97 403.433 142.97 367.003V334.555H311.13C359.6 334.555 399.03 289.568 399.03 234.267V132.736H454.1C486.03 132.736 512 162.377 512 198.807V198.807Z" fill="black"/>
</svg>
