<svg width="18" height="30" viewBox="0 0 18 30" fill="none" xmlns="http://www.w3.org/2000/svg">
<path d="M6.11025 15.0063L17.3332 3.78293C17.6422 3.47463 17.8122 3.06244 17.8122 2.62293C17.8122 2.18317 17.6422 1.77122 17.3332 1.46244L16.3498 0.479512C16.0412 0.170244 15.6288 0 15.1893 0C14.7498 0 14.3378 0.170244 14.029 0.479512L0.666348 13.842C0.356348 14.1517 0.186592 14.5656 0.187812 15.0056C0.186592 15.4476 0.356104 15.861 0.666348 16.171L14.0166 29.5205C14.3254 29.8298 14.7373 30 15.1771 30C15.6166 30 16.0285 29.8298 16.3376 29.5205L17.3207 28.5376C17.9605 27.8978 17.9605 26.8563 17.3207 26.2168L6.11025 15.0063Z" fill="black"/>
</svg>
